<?xml version="1.0" encoding="UTF-8" standalone="no"?>
<!-- Created with Inkscape (http://www.inkscape.org/) -->

<svg
   version="1.1"
   id="svg1"
   width="3200"
   height="2666.6667"
   viewBox="0 0 3200 2666.6667"
   sodipodi:docname="vecteezyself-care-mental-health-illustrationya1122-02.eps"
   xmlns:inkscape="http://www.inkscape.org/namespaces/inkscape"
   xmlns:sodipodi="http://sodipodi.sourceforge.net/DTD/sodipodi-0.dtd"
   xmlns="http://www.w3.org/2000/svg"
   xmlns:svg="http://www.w3.org/2000/svg">
  <defs
     id="defs1">
    <clipPath
       clipPathUnits="userSpaceOnUse"
       id="clipPath28">
      <path
         d="m 3706.81,7986.4 c 237.61,0 430.23,-192.7 430.23,-430.3 0,-237.6 -192.62,-430.2 -430.23,-430.2 -237.61,0 -430.23,192.6 -430.23,430.2 0,237.6 192.62,430.3 430.23,430.3 z"
         transform="translate(0,2.5000001e-4)"
         id="path28" />
    </clipPath>
    <clipPath
       clipPathUnits="userSpaceOnUse"
       id="clipPath30">
      <path
         d="m 3706.81,7986.4 c 237.61,0 430.23,-192.7 430.23,-430.3 0,-237.6 -192.62,-430.2 -430.23,-430.2 -237.61,0 -430.23,192.6 -430.23,430.2 0,237.6 192.62,430.3 430.23,430.3 z"
         transform="translate(0,2.5000001e-4)"
         id="path30" />
    </clipPath>
    <clipPath
       clipPathUnits="userSpaceOnUse"
       id="clipPath32">
      <path
         d="m 3706.81,7986.4 c 237.61,0 430.23,-192.7 430.23,-430.3 0,-237.6 -192.62,-430.2 -430.23,-430.2 -237.61,0 -430.23,192.6 -430.23,430.2 0,237.6 192.62,430.3 430.23,430.3 z"
         transform="translate(0,2.5000001e-4)"
         id="path32" />
    </clipPath>
    <clipPath
       clipPathUnits="userSpaceOnUse"
       id="clipPath34">
      <path
         d="m 3706.81,7986.4 c 237.61,0 430.23,-192.7 430.23,-430.3 0,-237.6 -192.62,-430.2 -430.23,-430.2 -237.61,0 -430.23,192.6 -430.23,430.2 0,237.6 192.62,430.3 430.23,430.3 z"
         transform="translate(0,2.5000001e-4)"
         id="path34" />
    </clipPath>
    <clipPath
       clipPathUnits="userSpaceOnUse"
       id="clipPath36">
      <path
         d="m 3706.81,7986.4 c 237.61,0 430.23,-192.7 430.23,-430.3 0,-237.6 -192.62,-430.2 -430.23,-430.2 -237.61,0 -430.23,192.6 -430.23,430.2 0,237.6 192.62,430.3 430.23,430.3 z"
         transform="translate(0,2.5000001e-4)"
         id="path36" />
    </clipPath>
    <clipPath
       clipPathUnits="userSpaceOnUse"
       id="clipPath38">
      <path
         d="m 3706.81,7986.4 c 237.61,0 430.23,-192.7 430.23,-430.3 0,-237.6 -192.62,-430.2 -430.23,-430.2 -237.61,0 -430.23,192.6 -430.23,430.2 0,237.6 192.62,430.3 430.23,430.3 z"
         transform="translate(0,2.5000001e-4)"
         id="path38" />
    </clipPath>
    <clipPath
       clipPathUnits="userSpaceOnUse"
       id="clipPath40">
      <path
         d="m 3706.81,7986.4 c 237.61,0 430.23,-192.7 430.23,-430.3 0,-237.6 -192.62,-430.2 -430.23,-430.2 -237.61,0 -430.23,192.6 -430.23,430.2 0,237.6 192.62,430.3 430.23,430.3 z"
         transform="translate(0,2.5000001e-4)"
         id="path40" />
    </clipPath>
    <clipPath
       clipPathUnits="userSpaceOnUse"
       id="clipPath42">
      <path
         d="m 3706.81,7986.4 c 237.61,0 430.23,-192.7 430.23,-430.3 0,-237.6 -192.62,-430.2 -430.23,-430.2 -237.61,0 -430.23,192.6 -430.23,430.2 0,237.6 192.62,430.3 430.23,430.3 z"
         transform="translate(0,2.5000001e-4)"
         id="path42" />
    </clipPath>
    <clipPath
       clipPathUnits="userSpaceOnUse"
       id="clipPath45">
      <path
         d="m 5266.87,7986.4 c 237.61,0 430.23,-192.7 430.23,-430.3 0,-237.6 -192.62,-430.2 -430.23,-430.2 -237.61,0 -430.23,192.6 -430.23,430.2 0,237.6 192.62,430.3 430.23,430.3 z"
         transform="translate(0,2.5000001e-4)"
         id="path45" />
    </clipPath>
    <clipPath
       clipPathUnits="userSpaceOnUse"
       id="clipPath47">
      <path
         d="m 5266.87,7986.4 c 237.61,0 430.23,-192.7 430.23,-430.3 0,-237.6 -192.62,-430.2 -430.23,-430.2 -237.61,0 -430.23,192.6 -430.23,430.2 0,237.6 192.62,430.3 430.23,430.3 z"
         transform="translate(0,2.5000001e-4)"
         id="path47" />
    </clipPath>
    <clipPath
       clipPathUnits="userSpaceOnUse"
       id="clipPath49">
      <path
         d="m 5266.87,7986.4 c 237.61,0 430.23,-192.7 430.23,-430.3 0,-237.6 -192.62,-430.2 -430.23,-430.2 -237.61,0 -430.23,192.6 -430.23,430.2 0,237.6 192.62,430.3 430.23,430.3 z"
         transform="translate(0,2.5000001e-4)"
         id="path49" />
    </clipPath>
    <clipPath
       clipPathUnits="userSpaceOnUse"
       id="clipPath51">
      <path
         d="m 5266.87,7986.4 c 237.61,0 430.23,-192.7 430.23,-430.3 0,-237.6 -192.62,-430.2 -430.23,-430.2 -237.61,0 -430.23,192.6 -430.23,430.2 0,237.6 192.62,430.3 430.23,430.3 z"
         transform="translate(0,2.5000001e-4)"
         id="path51" />
    </clipPath>
    <clipPath
       clipPathUnits="userSpaceOnUse"
       id="clipPath53">
      <path
         d="m 5266.87,7986.4 c 237.61,0 430.23,-192.7 430.23,-430.3 0,-237.6 -192.62,-430.2 -430.23,-430.2 -237.61,0 -430.23,192.6 -430.23,430.2 0,237.6 192.62,430.3 430.23,430.3 z"
         transform="translate(0,2.5000001e-4)"
         id="path53" />
    </clipPath>
    <clipPath
       clipPathUnits="userSpaceOnUse"
       id="clipPath55">
      <path
         d="m 5266.87,7986.4 c 237.61,0 430.23,-192.7 430.23,-430.3 0,-237.6 -192.62,-430.2 -430.23,-430.2 -237.61,0 -430.23,192.6 -430.23,430.2 0,237.6 192.62,430.3 430.23,430.3 z"
         transform="translate(0,2.5000001e-4)"
         id="path55" />
    </clipPath>
    <clipPath
       clipPathUnits="userSpaceOnUse"
       id="clipPath57">
      <path
         d="m 5266.87,7986.4 c 237.61,0 430.23,-192.7 430.23,-430.3 0,-237.6 -192.62,-430.2 -430.23,-430.2 -237.61,0 -430.23,192.6 -430.23,430.2 0,237.6 192.62,430.3 430.23,430.3 z"
         transform="translate(0,2.5000001e-4)"
         id="path57" />
    </clipPath>
    <clipPath
       clipPathUnits="userSpaceOnUse"
       id="clipPath59">
      <path
         d="m 5266.87,7986.4 c 237.61,0 430.23,-192.7 430.23,-430.3 0,-237.6 -192.62,-430.2 -430.23,-430.2 -237.61,0 -430.23,192.6 -430.23,430.2 0,237.6 192.62,430.3 430.23,430.3 z"
         transform="translate(0,2.5000001e-4)"
         id="path59" />
    </clipPath>
  </defs>
  <sodipodi:namedview
     id="namedview1"
     pagecolor="#ffffff"
     bordercolor="#000000"
     borderopacity="0.25"
     inkscape:showpageshadow="2"
     inkscape:pageopacity="0.0"
     inkscape:pagecheckerboard="0"
     inkscape:deskcolor="#d1d1d1">
    <inkscape:page
       x="0"
       y="0"
       inkscape:label="1"
       id="page1"
       width="3200"
       height="2666.6667"
       margin="0"
       bleed="0" />
  </sodipodi:namedview>
  <g
     id="g1"
     inkscape:groupmode="layer"
     inkscape:label="1">
    <g
       id="group-R5">
      <path
         id="path2"
         d="M 24000,0 H 0 V 20000 H 24000 V 0"
         style="fill:#ffffff;fill-opacity:1;fill-rule:nonzero;stroke:none"
         transform="matrix(0.13333333,0,0,-0.13333333,0,2666.6667)" />
      <path
         id="path3"
         d="m 17834.2,13719.9 c -1557.3,429 -5901.9,3130.6 -8368.84,3323.8 C 6998.38,17236.9 4298.52,16166.1 2803.05,13274.6 1307.58,10383 1045.65,5943 4094.76,2893.9 c 4748.4,0 17130.64,62.2 17130.64,62.2 v 0 c 50.9,245.6 1764.7,4250.5 709.5,7764.2 -1055.2,3513.7 -2543.4,2570.6 -4100.7,2999.6"
         style="fill:#f5fafd;fill-opacity:1;fill-rule:nonzero;stroke:none"
         transform="matrix(0.13333333,0,0,-0.13333333,0,2666.6667)" />
      <path
         id="path4"
         d="m 11585.8,9544 h 7358.9 v 8624.1 H 11585.8 V 9544"
         style="fill:#d7e1fd;fill-opacity:1;fill-rule:nonzero;stroke:none"
         transform="matrix(0.13333333,0,0,-0.13333333,0,2666.6667)" />
      <path
         id="path5"
         d="m 11912.7,9870.9 h 6705.1 v 7970.3 H 11912.7 V 9870.9"
         style="fill:#e6f1fc;fill-opacity:1;fill-rule:nonzero;stroke:none"
         transform="matrix(0.13333333,0,0,-0.13333333,0,2666.6667)" />
      <path
         id="path6"
         d="m 16909.1,17253.3 c -666,0 -1205.9,-539.9 -1205.9,-1205.8 0,-666 539.9,-1205.9 1205.9,-1205.9 665.9,0 1205.8,539.9 1205.8,1205.9 0,665.9 -539.9,1205.8 -1205.8,1205.8"
         style="fill:#f5fafd;fill-opacity:1;fill-rule:nonzero;stroke:none"
         transform="matrix(0.13333333,0,0,-0.13333333,0,2666.6667)" />
      <path
         id="path7"
         d="m 17345,12524.1 c -812.4,-719.3 -332.5,-1301.9 -332.5,-1301.9 0,0 -563.8,455.9 -809.2,205.2 -245.5,-250.8 64.9,-542.7 64.9,-542.7 0,0 -574.8,334.6 -791.8,-71.3 -216.9,-406 22.1,-690.9 22.1,-690.9 l -1330.1,-95.5 c 0,0 178.9,1173.9 -660.4,839.1 -430.9,1143.4 -535.1,1614.2 -1595.3,1228.6 V 9870.9 h 6705.1 v 2987.8 c -107.5,20.9 -226.5,34.5 -353.7,31.6 -288.5,-6.8 -614.5,-96.4 -919.1,-366.2"
         style="fill:#d7e1fd;fill-opacity:1;fill-rule:nonzero;stroke:none"
         transform="matrix(0.13333333,0,0,-0.13333333,0,2666.6667)" />
      <path
         id="path8"
         d="m 17237.6,13175.1 c 190,336.2 -568.4,641 -1247.8,470 137.8,951.6 -465.6,866.2 -766.5,686.7 172.6,896 -539.9,806.3 -749,531.4 0,617.8 -649.4,1269.5 -1489.5,1274 -336.6,1.8 -703.9,-101.1 -1072.1,-350.9 V 13196 c 1448.5,-89.6 5170.6,-293.8 5324.9,-20.9"
         style="fill:#d7e1fd;fill-opacity:1;fill-rule:nonzero;stroke:none"
         transform="matrix(0.13333333,0,0,-0.13333333,0,2666.6667)" />
      <path
         id="path9"
         d="m 18061.1,16374.5 c 0,0 -540,146.6 -302.5,-460.2 -847.2,-89.8 -926.4,-286.3 -283.4,-307.6 309.5,-10.3 758.3,-4.1 1142.6,4.8 v 1677.3 c -113,-10.3 -238.6,-54 -374.5,-157.9 -538.4,-411.7 -182.2,-756.4 -182.2,-756.4"
         style="fill:#d7e1fd;fill-opacity:1;fill-rule:nonzero;stroke:none"
         transform="matrix(0.13333333,0,0,-0.13333333,0,2666.6667)" />
      <path
         id="path10"
         d="m 4593.36,6551.3 c -908.22,441.1 -1139.35,361.2 -1650.66,431.6 -511.3,70.4 -884.86,600.7 -884.86,600.7 -82.89,-1258.1 286,-1952.2 1026.11,-2435.2 740.11,-483 757.63,-1143.5 782.14,-1493.2 24.52,-349.7 74.72,-761.3 74.72,-761.3 0,0 1114.83,0 2578.71,0 0,1533.1 -1017.95,3216.4 -1926.16,3657.4"
         style="fill:#748825;fill-opacity:1;fill-rule:nonzero;stroke:none"
         transform="matrix(0.13333333,0,0,-0.13333333,0,2666.6667)" />
      <path
         id="path11"
         d="m 4593.36,6551.4 c -642.78,312.1 -946.27,362.7 -1250.11,391 530.47,-640.7 2000.68,-2584.3 1632.16,-4048.5 h 1544.12 c 0,1533.1 -1017.96,3216.4 -1926.17,3657.5"
         style="fill:#677821;fill-opacity:1;fill-rule:nonzero;stroke:none"
         transform="matrix(0.13333333,0,0,-0.13333333,0,2666.6667)" />
      <path
         id="path12"
         d="m 22213.3,9295 c -936.6,-25.3 -861.7,-926.8 -1019.6,-1520.2 -157.9,-593.4 -770.7,-851 -1347.4,-1219.3 -576.7,-368.3 -1124,-671.6 -1344.8,-1391.4 -220.8,-719.8 -260.9,-1009.9 -694.4,-1333.7 -433.6,-323.7 -571.4,-547.9 -560.7,-936.5 v 0 h 2894.3 c 0,0 377.3,411.8 413.4,878.8 36.2,467 247.6,529.3 634.3,994.6 386.7,465.4 1002.2,1021.5 1033,2120.4 30.7,1098.9 -563.4,1960.7 -8.1,2407.3"
         style="fill:#748825;fill-opacity:1;fill-rule:nonzero;stroke:none"
         transform="matrix(0.13333333,0,0,-0.13333333,0,2666.6667)" />
      <path
         id="path13"
         d="m 18501.6,5164.1 c -220.8,-719.8 -261,-1009.8 -694.5,-1333.6 -433.6,-323.8 -571.4,-548 -560.7,-936.6 h 1043.2 c 111.6,207.4 246.3,436.2 368.8,580.8 268.9,317.3 750.2,847.1 927.6,1641.4 117.7,526.5 -4.5,949.6 -107.6,1203.3 -430.4,-283.9 -804,-591.9 -976.8,-1155.3"
         style="fill:#677821;fill-opacity:1;fill-rule:nonzero;stroke:none"
         transform="matrix(0.13333333,0,0,-0.13333333,0,2666.6667)" />
      <path
         id="path14"
         d="m 18788.2,8923.4 c -576.7,-266 -1257.8,-439.3 -1578.9,-1535.8 -321.2,-1096.5 -459,-1178.4 -1134.7,-1816.3 -675.7,-637.9 -1033,-2677.4 -1033,-2677.4 h 2817.5 c -1.8,317.2 289.5,556.6 652.1,896 362.6,339.4 984.8,1041.2 855,1777.8 -129.8,736.6 -370.6,830.5 -359.9,1425.1 10.7,594.6 861.7,723.4 1078.5,1431.1 216.7,707.8 21.4,1409.5 380,2131.7 C 20046,10428 19364.9,9189.4 18788.2,8923.4"
         style="fill:#89a02c;fill-opacity:1;fill-rule:nonzero;stroke:none"
         transform="matrix(0.13333333,0,0,-0.13333333,0,2666.6667)" />
      <path
         id="path15"
         d="m 6708.24,7479.9 c -727.28,405.3 -1004.27,583 -1250.58,1243.5 -246.31,660.5 -501.97,652.1 -981.76,841.1 -479.78,189 -1233.9,642.6 -1233.9,642.6 0,0 378.24,-551.3 288.34,-1054.2 -89.89,-503 -496.13,-1487 410.91,-2351.2 907.05,-864.2 1485.68,-1853.5 1742.49,-2495.1 256.83,-641.6 149.3,-1074 835.77,-1412.7 H 8211.8 c 0,0 424.92,801.5 219.47,2070 -205.46,1268.5 -995.76,2110.6 -1723.03,2516"
         style="fill:#89a02c;fill-opacity:1;fill-rule:nonzero;stroke:none"
         transform="matrix(0.13333333,0,0,-0.13333333,0,2666.6667)" />
      <path
         id="path16"
         d="m 19541,8851.9 c -167.1,-216.6 -378.8,-399.5 -603,-593 -279.5,-241.6 -568.7,-491.3 -772.6,-817.4 -249.7,-399.2 -336.8,-869.8 -420.9,-1324.8 -59.8,-322.7 -121.5,-656.6 -241,-959.2 -136.6,-345.9 -382.1,-620.2 -619.7,-885.4 -154,-172.2 -313.4,-350.2 -444.3,-548 -150.1,-227.2 -206.8,-467.6 -168.6,-714.5 2.1,-13.1 13.4,-22.5 26.2,-22.5 1.4,0 2.7,0.1 4.1,0.3 14.5,2.3 24.5,15.8 22.2,30.3 -36.1,233.5 17.9,461.2 160.6,677.1 128.7,194.6 286.6,371.2 439.5,541.9 240.6,268.7 489.3,546.6 629.4,901.2 121.5,307.5 183.6,643.9 243.8,969.2 83.3,450.1 169.4,915.6 413.7,1306.2 199.7,319.4 485.7,566.4 762.3,805.3 226.3,195.4 440,379.9 610.5,600.9 8.9,11.6 6.7,28.2 -4.9,37.3 -11.4,8.9 -28.2,6.9 -37.3,-4.9"
         style="fill:#677821;fill-opacity:1;fill-rule:nonzero;stroke:none"
         transform="matrix(0.13333333,0,0,-0.13333333,0,2666.6667)" />
      <path
         id="path17"
         d="m 21616.9,7344.5 c -13.5,4 -28.7,-3.6 -33.1,-17.7 -234.4,-773.2 -622.7,-1038.9 -1033.9,-1320.2 -281,-192.4 -571.7,-391.2 -835.4,-760.3 -166.5,-232.9 -182.4,-527.7 -197.8,-812.8 -14.5,-269 -28.3,-522.9 -156.6,-730.6 -107.7,-174.4 -272.6,-309.2 -432.2,-439.5 -90.1,-73.6 -183.3,-149.7 -265.2,-232.2 -10.3,-10.4 -10.3,-27.2 0.2,-37.6 5.2,-5 12,-7.6 18.7,-7.6 6.8,0 13.7,2.6 18.9,7.9 79.8,80.4 172,155.6 261,228.4 162.9,133 331.5,270.7 443.9,452.6 135.4,219.3 150.1,492 164.4,755.7 14.9,277.6 30.4,564.5 187.8,784.8 258.3,361.3 545,557.6 822.4,747.3 419,286.8 814.8,557.7 1054.7,1348.7 4.2,14 -3.6,28.9 -17.8,33.1"
         style="fill:#4d5919;fill-opacity:1;fill-rule:nonzero;stroke:none"
         transform="matrix(0.13333333,0,0,-0.13333333,0,2666.6667)" />
      <path
         id="path18"
         d="m 5420.2,4039.6 c -69.64,301.3 -141.67,612.9 -288.52,894.8 -308.35,592.1 -835.36,827.6 -1393.31,1076.9 -90.5,40.5 -181.42,81 -271.91,123.6 -218.47,102.4 -402.07,257.6 -530.97,448.7 -8.2,12.1 -24.7,15.6 -36.84,7.1 -12.14,-8.2 -15.36,-24.7 -7.16,-36.8 134.3,-199.1 325.26,-360.6 552.34,-467.2 90.81,-42.5 182.14,-83.3 272.95,-123.9 549.13,-245.4 1067.95,-477.3 1367.78,-1052.9 143.64,-275.9 214.94,-584.2 283.85,-882.3 83.13,-359.7 169.17,-731.5 383.18,-1045.3 5.08,-7.5 13.38,-11.6 21.89,-11.6 5.2,0 10.38,1.5 14.95,4.7 12.14,8.2 15.25,24.7 6.95,36.8 -208.29,305.6 -289.35,656.2 -375.18,1027.4"
         style="fill:#4d5919;fill-opacity:1;fill-rule:nonzero;stroke:none"
         transform="matrix(0.13333333,0,0,-0.13333333,0,2666.6667)" />
      <path
         id="path19"
         d="m 5228.93,7318.5 c -129.94,215.3 -214.32,462.7 -296,702 -65.9,193.2 -133.98,393 -226.04,576.3 -48.67,96.8 -122.88,170.9 -194.59,242.7 -60.41,60.3 -117.49,117.4 -160.25,186.6 -33.94,55 -63.31,121.6 -91.85,185.8 -41,92.6 -83.34,188.3 -140.84,253.7 -9.65,11.1 -26.36,12.1 -37.46,2.3 -11,-9.6 -12.15,-26.4 -2.39,-37.4 52.1,-59.3 90.92,-147.1 132.12,-240.1 29.16,-65.9 59.36,-134.1 95.17,-192.2 46.08,-74.5 108.04,-136.5 167.92,-196.3 68.81,-68.7 139.91,-139.8 184.63,-229 90.51,-180.1 157.97,-378.1 223.35,-569.6 82.51,-241.9 167.82,-492 300.77,-712.2 272.02,-450.9 642.43,-897.6 1000.69,-1329.6 748.29,-902.4 1522.11,-1835.6 1555.42,-2940.9 0.42,-14.3 12.25,-25.7 26.57,-25.7 0.21,0 0.52,0 0.83,0 14.63,0.4 26.15,12.7 25.74,27.4 -33.94,1123.5 -813.67,2063.8 -1567.67,2973.1 -373.42,450.3 -726.18,875.8 -996.12,1323.1"
         style="fill:#4d5919;fill-opacity:1;fill-rule:nonzero;stroke:none"
         transform="matrix(0.13333333,0,0,-0.13333333,0,2666.6667)" />
      <path
         id="path20"
         d="m 2981.3,3172.7 c 7.96,-154.3 124.38,-278.8 278.87,-278.8 h 2464.21 c 154.49,0 270.91,124.5 278.87,278.8 l 170,3295.4 H 2811.3 l 170,-3295.4"
         style="fill:#784421;fill-opacity:1;fill-rule:nonzero;stroke:none"
         transform="matrix(0.13333333,0,0,-0.13333333,0,2666.6667)" />
      <path
         id="path21"
         d="m 5154.72,2893.9 h 569.62 c 154.49,0 271.02,124.5 278.97,278.8 l 170,3295.4 H 5440.08 C 5463.67,6360.9 6023.83,3765 5154.72,2893.9"
         style="fill:#6b3d1e;fill-opacity:1;fill-rule:nonzero;stroke:none"
         transform="matrix(0.13333333,0,0,-0.13333333,0,2666.6667)" />
      <path
         id="path22"
         d="M 6257.75,6640.4 H 2726.8 c -37.94,0 -68.69,-30.8 -68.69,-68.7 v -148 c 0,-38 30.75,-68.7 68.69,-68.7 h 3530.95 c 37.94,0 68.69,30.7 68.69,68.7 v 148 c 0,37.9 -30.75,68.7 -68.69,68.7"
         style="fill:#502d16;fill-opacity:1;fill-rule:nonzero;stroke:none"
         transform="matrix(0.13333333,0,0,-0.13333333,0,2666.6667)" />
      <path
         id="path23"
         d="M 5947.25,6954.1 H 3037.3 c -37.94,0 -68.69,-30.8 -68.69,-68.7 v -176.3 c 0,-37.9 30.75,-68.7 68.69,-68.7 h 2909.95 c 37.94,0 68.7,30.8 68.7,68.7 v 176.3 c 0,37.9 -30.76,68.7 -68.7,68.7"
         style="fill:#784421;fill-opacity:1;fill-rule:nonzero;stroke:none"
         transform="matrix(0.13333333,0,0,-0.13333333,0,2666.6667)" />
      <path
         id="path24"
         d="m 2897.68,9195.4 730.93,-1117.5 194.56,22.5 -821.85,1193.6 -103.64,-98.6"
         style="fill:#4870cc;fill-opacity:1;fill-rule:nonzero;stroke:none"
         transform="matrix(0.13333333,0,0,-0.13333333,0,2666.6667)" />
      <path
         id="path25"
         d="M 5382.24,8158.2 H 3602.31 c -250.07,0 -452.79,-202.7 -452.79,-452.8 v -298.5 c 0,-250.1 202.72,-452.8 452.79,-452.8 h 1779.93 c 250.07,0 452.79,202.7 452.79,452.8 v 298.5 c 0,250.1 -202.72,452.8 -452.79,452.8"
         style="fill:#87a2e3;fill-opacity:1;fill-rule:nonzero;stroke:none"
         transform="matrix(0.13333333,0,0,-0.13333333,0,2666.6667)" />
      <path
         id="path26"
         d="m 3706.81,7986.4 c -237.61,0 -430.23,-192.7 -430.23,-430.3 0,-237.6 192.62,-430.2 430.23,-430.2 237.61,0 430.23,192.6 430.23,430.2 0,237.6 -192.62,430.3 -430.23,430.3"
         style="fill:#4b74d5;fill-opacity:1;fill-rule:nonzero;stroke:none"
         transform="matrix(0.13333333,0,0,-0.13333333,0,2666.6667)" />
      <path
         id="path27"
         d="m 3801.47,8166.3 -683.21,-810.1 c -4.67,-5.7 -4.05,-14 1.55,-18.7 2.49,-2.1 5.61,-3.2 8.62,-3.2 3.73,0 7.58,1.6 10.17,4.7 l 683.21,810.1 c 4.67,5.7 4.05,14 -1.55,18.7 -5.81,4.7 -14.22,4.2 -18.79,-1.5"
         style="fill:#87a2e3;fill-opacity:1;fill-rule:nonzero;stroke:none"
         transform="matrix(0.13333333,0,0,-0.13333333,0,2666.6667)"
         clip-path="url(#clipPath28)" />
      <path
         id="path29"
         d="m 3924.15,8015.5 -683.12,-810.1 c -4.67,-5.7 -4.04,-14 1.56,-18.7 2.6,-2.1 5.61,-3.2 8.62,-3.2 3.73,0 7.57,1.6 10.17,4.7 l 683.11,810.1 c 4.67,5.7 4.04,14 -1.56,18.7 -5.92,4.7 -14.11,4.2 -18.78,-1.5"
         style="fill:#87a2e3;fill-opacity:1;fill-rule:nonzero;stroke:none"
         transform="matrix(0.13333333,0,0,-0.13333333,0,2666.6667)"
         clip-path="url(#clipPath30)" />
      <path
         id="path31"
         d="m 4086.88,7894.8 -683.11,-810.1 c -4.67,-5.7 -4.05,-14 1.55,-18.7 2.6,-2.1 5.61,-3.2 8.62,-3.2 3.73,0 7.58,1.6 10.17,4.7 l 683.11,810 c 4.67,5.8 4.05,14.1 -1.55,18.8 -5.92,4.7 -14.22,4.2 -18.79,-1.5"
         style="fill:#87a2e3;fill-opacity:1;fill-rule:nonzero;stroke:none"
         transform="matrix(0.13333333,0,0,-0.13333333,0,2666.6667)"
         clip-path="url(#clipPath32)" />
      <path
         id="path33"
         d="M 4223.77,7752.1 3540.56,6942 c -4.67,-5.7 -4.05,-14 1.55,-18.7 2.6,-2.1 5.61,-3.2 8.62,-3.2 3.73,0 7.58,1.6 10.17,4.7 l 683.22,810 c 4.66,5.8 4.04,14.1 -1.56,18.8 -5.71,4.7 -14.12,4.1 -18.79,-1.5"
         style="fill:#87a2e3;fill-opacity:1;fill-rule:nonzero;stroke:none"
         transform="matrix(0.13333333,0,0,-0.13333333,0,2666.6667)"
         clip-path="url(#clipPath34)" />
      <path
         id="path35"
         d="m 3560.9,8166.3 c -4.67,5.6 -13.18,6.1 -18.79,1.5 -5.6,-4.7 -6.22,-13 -1.55,-18.7 L 4223.77,7339 c 2.6,-3.1 6.44,-4.7 10.17,-4.7 3.01,0 6.13,1.1 8.62,3.2 5.6,4.7 6.22,13 1.56,18.7 l -683.22,810.1"
         style="fill:#87a2e3;fill-opacity:1;fill-rule:nonzero;stroke:none"
         transform="matrix(0.13333333,0,0,-0.13333333,0,2666.6667)"
         clip-path="url(#clipPath36)" />
      <path
         id="path37"
         d="m 3438.12,8015.5 c -4.67,5.6 -13.08,6.1 -18.78,1.5 -5.61,-4.7 -6.23,-13 -1.56,-18.7 l 683.21,-810.1 c 2.6,-3.1 6.44,-4.7 10.17,-4.7 3.02,0 6.13,1.1 8.62,3.2 5.61,4.7 6.23,13 1.56,18.7 l -683.22,810.1"
         style="fill:#87a2e3;fill-opacity:1;fill-rule:nonzero;stroke:none"
         transform="matrix(0.13333333,0,0,-0.13333333,0,2666.6667)"
         clip-path="url(#clipPath38)" />
      <path
         id="path39"
         d="m 3275.39,7894.8 c -4.57,5.6 -13.08,6.1 -18.79,1.5 -5.6,-4.7 -6.23,-13 -1.55,-18.8 l 683.21,-810 c 2.6,-3.1 6.44,-4.7 10.17,-4.7 3.01,0 6.12,1.1 8.62,3.2 5.6,4.7 6.22,13 1.55,18.7 l -683.21,810.1"
         style="fill:#87a2e3;fill-opacity:1;fill-rule:nonzero;stroke:none"
         transform="matrix(0.13333333,0,0,-0.13333333,0,2666.6667)"
         clip-path="url(#clipPath40)" />
      <path
         id="path41"
         d="m 3138.6,7752.1 c -4.57,5.5 -13.18,6.1 -18.79,1.5 -5.6,-4.7 -6.22,-13 -1.55,-18.8 l 683.21,-810 c 2.6,-3.1 6.44,-4.7 10.17,-4.7 3.01,0 6.13,1.1 8.62,3.2 5.6,4.7 6.22,13 1.55,18.7 l -683.21,810.1"
         style="fill:#87a2e3;fill-opacity:1;fill-rule:nonzero;stroke:none"
         transform="matrix(0.13333333,0,0,-0.13333333,0,2666.6667)"
         clip-path="url(#clipPath42)" />
      <path
         id="path43"
         d="m 5266.87,7986.4 c -237.61,0 -430.23,-192.7 -430.23,-430.3 0,-237.6 192.62,-430.2 430.23,-430.2 237.61,0 430.23,192.6 430.23,430.2 0,237.6 -192.62,430.3 -430.23,430.3"
         style="fill:#4b74d5;fill-opacity:1;fill-rule:nonzero;stroke:none"
         transform="matrix(0.13333333,0,0,-0.13333333,0,2666.6667)" />
      <path
         id="path44"
         d="m 5361.56,8166.3 -683.21,-810.1 c -4.67,-5.7 -4.05,-14 1.55,-18.7 2.5,-2.1 5.61,-3.2 8.62,-3.2 3.73,0 7.58,1.6 10.17,4.7 l 683.22,810.1 c 4.66,5.7 4.04,14 -1.56,18.7 -5.81,4.7 -14.12,4.2 -18.79,-1.5"
         style="fill:#87a2e3;fill-opacity:1;fill-rule:nonzero;stroke:none"
         transform="matrix(0.13333333,0,0,-0.13333333,0,2666.6667)"
         clip-path="url(#clipPath45)" />
      <path
         id="path46"
         d="m 5484.24,8015.5 -683.22,-810.1 c -4.67,-5.7 -4.05,-14 1.56,-18.7 2.49,-2.1 5.61,-3.2 8.61,-3.2 3.74,0 7.58,1.6 10.18,4.7 l 683.21,810.1 c 4.67,5.7 4.04,14 -1.56,18.7 -5.6,4.7 -14.22,4.2 -18.78,-1.5"
         style="fill:#87a2e3;fill-opacity:1;fill-rule:nonzero;stroke:none"
         transform="matrix(0.13333333,0,0,-0.13333333,0,2666.6667)"
         clip-path="url(#clipPath47)" />
      <path
         id="path48"
         d="m 5646.97,7894.8 -683.21,-810.1 c -4.67,-5.7 -4.05,-14 1.55,-18.7 2.49,-2.1 5.61,-3.2 8.62,-3.2 3.73,0 7.57,1.6 10.17,4.7 l 683.22,810 c 4.66,5.8 4.04,14.1 -1.56,18.8 -5.81,4.7 -14.12,4.2 -18.79,-1.5"
         style="fill:#87a2e3;fill-opacity:1;fill-rule:nonzero;stroke:none"
         transform="matrix(0.13333333,0,0,-0.13333333,0,2666.6667)"
         clip-path="url(#clipPath49)" />
      <path
         id="path50"
         d="M 5783.86,7752.1 5100.65,6942 c -4.67,-5.7 -4.05,-14 1.55,-18.7 2.6,-2.1 5.61,-3.2 8.62,-3.2 3.73,0 7.58,1.6 10.17,4.7 l 683.22,810 c 4.66,5.8 4.04,14.1 -1.56,18.8 -5.61,4.7 -14.22,4.1 -18.79,-1.5"
         style="fill:#87a2e3;fill-opacity:1;fill-rule:nonzero;stroke:none"
         transform="matrix(0.13333333,0,0,-0.13333333,0,2666.6667)"
         clip-path="url(#clipPath51)" />
      <path
         id="path52"
         d="m 5120.99,8166.3 c -4.57,5.6 -13.18,6.1 -18.79,1.5 -5.6,-4.7 -6.22,-13 -1.55,-18.7 L 5783.86,7339 c 2.6,-3.1 6.44,-4.7 10.17,-4.7 3.01,0 6.13,1.1 8.62,3.2 5.6,4.7 6.22,13 1.56,18.7 l -683.22,810.1"
         style="fill:#87a2e3;fill-opacity:1;fill-rule:nonzero;stroke:none"
         transform="matrix(0.13333333,0,0,-0.13333333,0,2666.6667)"
         clip-path="url(#clipPath53)" />
      <path
         id="path54"
         d="m 4998.21,8015.5 c -4.67,5.6 -13.08,6.1 -18.78,1.5 -5.6,-4.7 -6.23,-13 -1.56,-18.7 l 683.22,-810.1 c 2.59,-3.1 6.43,-4.7 10.17,-4.7 3.01,0 6.12,1.1 8.61,3.2 5.61,4.7 6.23,13 1.56,18.7 l -683.22,810.1"
         style="fill:#87a2e3;fill-opacity:1;fill-rule:nonzero;stroke:none"
         transform="matrix(0.13333333,0,0,-0.13333333,0,2666.6667)"
         clip-path="url(#clipPath55)" />
      <path
         id="path56"
         d="m 4835.48,7894.8 c -4.67,5.6 -13.08,6.1 -18.79,1.5 -5.6,-4.7 -6.22,-13 -1.55,-18.8 l 683.21,-810 c 2.6,-3.1 6.44,-4.7 10.17,-4.7 3.01,0 6.13,1.1 8.62,3.2 5.6,4.7 6.22,13 1.55,18.7 l -683.21,810.1"
         style="fill:#87a2e3;fill-opacity:1;fill-rule:nonzero;stroke:none"
         transform="matrix(0.13333333,0,0,-0.13333333,0,2666.6667)"
         clip-path="url(#clipPath57)" />
      <path
         id="path58"
         d="m 4698.69,7752.1 c -4.67,5.5 -13.08,6.1 -18.79,1.5 -5.6,-4.7 -6.22,-13 -1.55,-18.8 l 683.21,-810 c 2.6,-3.1 6.44,-4.7 10.17,-4.7 3.01,0 6.13,1.1 8.62,3.2 5.6,4.7 6.22,13 1.56,18.7 l -683.22,810.1"
         style="fill:#87a2e3;fill-opacity:1;fill-rule:nonzero;stroke:none"
         transform="matrix(0.13333333,0,0,-0.13333333,0,2666.6667)"
         clip-path="url(#clipPath59)" />
      <path
         id="path60"
         d="m 4230.29,7480.9 h 519.11 v 150.5 h -519.11 v -150.5"
         style="fill:#4870cc;fill-opacity:1;fill-rule:nonzero;stroke:none"
         transform="matrix(0.13333333,0,0,-0.13333333,0,2666.6667)" />
      <path
         id="path61"
         d="m 12178.8,9245.6 h 0.1 c 0,0 -702,-650 -1080,-1685 -1010.6,-91.4 -1802.59,-474.2 -3011.15,-1406.4 -156.85,-609.5 396,-1820.4 396,-1820.4 L 12994,4293.3 c 0,0 548.8,985.5 659.3,1486.3 110.6,500.8 -143.8,826.8 -143.8,826.8 l -356.1,47.4 c 0,0 257.2,256.8 561.9,572.5 -283.8,1051.6 -1201.3,2508.1 -1536.5,2019.3"
         style="fill:#005d5d;fill-opacity:1;fill-rule:nonzero;stroke:none"
         transform="matrix(0.13333333,0,0,-0.13333333,0,2666.6667)" />
      <path
         id="path62"
         d="m 7225.64,3035.2 c -32.44,-83.3 5.23,-150.4 84.47,-150.4 79.24,0 160.71,67.5 201.6,150.4 l 250.01,506.9 h -391.51 l -144.57,-506.9"
         style="fill:#784421;fill-opacity:1;fill-rule:nonzero;stroke:none"
         transform="matrix(0.13333333,0,0,-0.13333333,0,2666.6667)" />
      <path
         id="path63"
         d="m 18471,3542.1 h -391.5 l 250,-506.9 c 40.9,-82.9 122.3,-150.4 201.6,-150.4 79.2,0 116.9,67.1 84.4,150.4 l -144.5,506.9"
         style="fill:#784421;fill-opacity:1;fill-rule:nonzero;stroke:none"
         transform="matrix(0.13333333,0,0,-0.13333333,0,2666.6667)" />
      <path
         id="path64"
         d="m 19126.5,4101.6 c -8,163 -142.7,291 -305.9,290.6 l -6176,-12.5 L 10758,10904 c -58.6,202.4 -244.2,341.5 -454.8,340.8 l -4639.29,-14.1 c -157.89,-0.5 -285.49,-128.9 -285.01,-286.8 0.06,-20.7 2.38,-41.4 6.92,-61.6 h -0.02 L 6984.67,3748.7 c 53.98,-240.8 268.36,-411.6 515.18,-410.4 l 11369.85,55.4 c 154,0.7 278.3,126.2 277.6,280.3 -0.1,4.1 -0.2,8.2 -0.4,12.3 l -20.4,415.3"
         style="fill:#ff6600;fill-opacity:1;fill-rule:nonzero;stroke:none"
         transform="matrix(0.13333333,0,0,-0.13333333,0,2666.6667)" />
      <path
         id="path65"
         d="m 8373.19,4358.8 -418.88,9.9 -1233.58,5465.2 c -3.22,14.2 -17.02,23.4 -31.76,20.1 -14.32,-3.2 -23.35,-17.4 -20.14,-31.7 L 7906.99,4336.8 c 2.69,-11.9 13.18,-20.4 25.32,-20.7 l 439.63,-10.4 c 0.21,0 0.42,0 0.63,0 14.42,0 26.25,11.5 26.57,25.9 0.3,14.7 -11.32,26.9 -25.95,27.2"
         style="fill:#d45500;fill-opacity:1;fill-rule:nonzero;stroke:none"
         transform="matrix(0.13333333,0,0,-0.13333333,0,2666.6667)" />
      <path
         id="path66"
         d="m 12039.3,12492 c -470.6,167.7 -2601.02,519.3 -2601.02,519.3 l -37.28,-915.9 1179,-298.4 -933.43,-858.2 816.43,-837.3 c 0,0 1717.7,963.4 2008.2,1474.6 290.6,511.2 38.6,748.2 -431.9,915.9"
         style="fill:#ffb380;fill-opacity:1;fill-rule:nonzero;stroke:none"
         transform="matrix(0.13333333,0,0,-0.13333333,0,2666.6667)" />
      <path
         id="path67"
         d="m 10997.3,11986.6 c -138.4,21.7 -301.5,-42.2 -397.3,-155.4 -9.6,-11.2 -8.1,-28 3,-37.4 5.1,-4.3 11.1,-6.4 17.2,-6.4 7.6,0 15.1,3.3 20.3,9.4 84.5,99.8 228,156.5 348.5,137.3 15.4,-2.2 28.1,7.6 30.4,22.1 2.3,14.5 -7.7,28.1 -22.1,30.4"
         style="fill:#ff7f2a;fill-opacity:1;fill-rule:nonzero;stroke:none"
         transform="matrix(0.13333333,0,0,-0.13333333,0,2666.6667)" />
      <path
         id="path68"
         d="m 12311.3,12370.1 c -28.6,-247.9 -94.1,-564.1 -244.7,-810.7 -279.4,-457.9 -1863.7,-1028.5 -1981.4,-1070.5 l 377.8,-387.4 c 0,0 1717.7,963.3 2008.2,1474.5 227.3,399.9 121.8,631.7 -159.9,794.1"
         style="fill:#ff9752;fill-opacity:1;fill-rule:nonzero;stroke:none"
         transform="matrix(0.13333333,0,0,-0.13333333,0,2666.6667)" />
      <path
         id="path69"
         d="m 9769.64,11155.3 c -214.71,3.5 -392.14,-126 -392.14,-126 0,0 232.72,-11.6 277.71,-447.6 45,-436 -178.71,-784.1 -606.85,-662.7 -428.14,121.4 -885.85,1105.7 -885.85,1105.7 0,0 -312.42,190.8 -461.57,113.3 -149.14,-77.5 -353.57,-793.4 -300.85,-1649.2 52.72,-855.9 262.28,-2534 262.28,-2534 0,0 -160.72,-251 -55.29,-323.8 105.43,-72.9 268.71,-83.3 268.71,-83.3 0,0 -311.14,-277.6 -51.42,-462.6 259.71,-185.1 556.7,-290.3 556.7,-290.3 l 2670.43,1598.3 c 0,0 153,1862 -219.9,2530.5 -372.8,668.5 -847.25,1228.3 -1061.96,1231.7"
         style="fill:#ffd42a;fill-opacity:1;fill-rule:nonzero;stroke:none"
         transform="matrix(0.13333333,0,0,-0.13333333,0,2666.6667)" />
      <path
         id="path70"
         d="m 8762.38,7453.9 c -86.93,98.6 500.19,664.2 500.19,664.2 l -981.54,-263.5 902.61,884.5 c 0,0 -685.96,-269.5 -866.5,-151.6 -180.53,117.9 -371.91,727 -371.91,727 l -552.81,413.3 c 0.63,-78.3 2.62,-157.8 7.63,-239.1 52.71,-855.8 262.31,-2533.9 262.31,-2533.9 0,0 -160.68,-251 -55.26,-323.9 105.43,-72.8 268.7,-83.2 268.7,-83.2 0,0 -311.09,-277.5 -51.37,-462.6 259.71,-185 556.7,-290.3 556.7,-290.3 l 2670.37,1598.3 c 0,0 16.1,213.2 25,509.9 -335.3,-39.6 -716.6,-84.3 -994.1,-118.2 -403.9,-49.3 -1233.09,-429.6 -1320.02,-330.9"
         style="fill:#ffb20f;fill-opacity:1;fill-rule:nonzero;stroke:none"
         transform="matrix(0.13333333,0,0,-0.13333333,0,2666.6667)" />
      <path
         id="path71"
         d="m 8447.18,7356.4 c -135.23,-4.8 -377.98,-316.4 -400.71,-380.8 -4.77,-13.8 2.49,-29.1 16.3,-34 14.01,-4.5 29.05,2.5 33.83,16.3 20.13,57.1 253.65,341.9 352.56,345.4 10.27,-0.8 18.37,-2.5 24.91,-17.5 57.6,-132.6 -210.27,-367.7 -387.53,-523.4 -72.65,-63.7 -135.34,-118.8 -170.21,-160.1 -9.55,-11.1 -8.1,-27.9 3.11,-37.3 4.98,-4.3 11,-6.3 17.12,-6.3 7.58,0 15.05,3.2 20.24,9.4 32.39,38.2 93.72,92 164.71,154.3 211.3,185.6 474.29,416.5 401.33,584.5 -14.42,33.3 -44,49.9 -75.66,49.5"
         style="fill:#cd8b00;fill-opacity:1;fill-rule:nonzero;stroke:none"
         transform="matrix(0.13333333,0,0,-0.13333333,0,2666.6667)" />
      <path
         id="path72"
         d="m 7823.54,11120.3 c -237.86,159.6 -474.43,38.2 -684,13.9 -209.56,-24.3 -501.42,127.2 -501.42,127.2 l 1286.99,674.3 -296.99,987.7 c 0,0 -2121.41,-932.2 -2460.84,-1121.9 -339.42,-189.7 -767.56,-647.6 -485.99,-999.2 281.57,-351.6 2660.11,-1101.1 2660.11,-1101.1 0,0 56.58,-209.3 339.43,-1132.2 741.86,541.3 142.72,2551.3 142.72,2551.3 h -0.01"
         style="fill:#ffb380;fill-opacity:1;fill-rule:nonzero;stroke:none"
         transform="matrix(0.13333333,0,0,-0.13333333,0,2666.6667)" />
      <path
         id="path73"
         d="m 6071.86,11436.2 c -16.5,1.6 -27.81,-8.9 -29.36,-23.3 -1.66,-14.7 8.82,-27.8 23.35,-29.4 134.19,-15.1 398.42,-69.7 536.46,-152.1 4.25,-2.4 8.92,-3.7 13.59,-3.7 9.03,0 17.86,4.7 22.84,13 7.47,12.6 3.42,28.8 -9.24,36.4 -163.46,97.5 -458,147.9 -557.64,159.1"
         style="fill:#ff7f2a;fill-opacity:1;fill-rule:nonzero;stroke:none"
         transform="matrix(0.13333333,0,0,-0.13333333,0,2666.6667)" />
      <path
         id="path74"
         d="m 7743.48,10502 c 8.06,32.5 8.87,53.6 8.87,53.6 0,0 -4.99,-30.4 -8.87,-53.6"
         style="fill:#ff9752;fill-opacity:1;fill-rule:nonzero;stroke:none"
         transform="matrix(0.13333333,0,0,-0.13333333,0,2666.6667)" />
      <path
         id="path75"
         d="m 7743.48,10502 c -16.09,-64.8 -62.9,-178.3 -203.63,-283.3 -211.3,-157.7 -1681.09,258.8 -2391.2,676.4 -253.3,149 -392.76,307 -467.81,448.8 -105.23,-177.3 -135.56,-371.7 0.47,-541.6 281.57,-351.6 2660.05,-1101.1 2660.05,-1101.1 0,0 56.68,-209.3 339.53,-1132.2 183.2,133.6 284.29,357.1 333.15,617.5 -106.4,159.6 -250.57,392.4 -292.36,579.6 -53.81,241.2 1.63,615.6 21.8,735.9"
         style="fill:#ff9752;fill-opacity:1;fill-rule:nonzero;stroke:none"
         transform="matrix(0.13333333,0,0,-0.13333333,0,2666.6667)" />
      <path
         id="path76"
         d="M 18455.5,6679.7 18199,4342.9 h 424.3 c 0,0 285.5,2063.2 183.2,2281.8 -102.2,218.6 -351,55 -351,55"
         style="fill:#a02c2c;fill-opacity:1;fill-rule:nonzero;stroke:none"
         transform="matrix(0.13333333,0,0,-0.13333333,0,2666.6667)" />
      <path
         id="path77"
         d="m 18499.8,6753.4 c -356.2,122.6 -713.6,-920.6 -713.6,-920.6 L 15757.4,6078 c 0,0 -86.2,873.2 -340.7,2215.9 -254.6,1342.7 -272.6,2070.2 -1110.9,2106 -838.3,35.9 -2104.7,-1643.4 -2104.7,-1643.4 v 0 c 212.2,-802.6 1278,-1629.5 1278,-1629.5 0,0 81,-20.9 378,422.1 -54,-395.5 312.4,-1378.6 312.4,-1378.6 0,0 -740.5,63.6 -1101.8,53.2 -250.7,-335.4 -316.3,-1886.3 -316.3,-1886.3 h 5628.8 c 0,0 475.7,2293.4 119.6,2416"
         style="fill:#ffb380;fill-opacity:1;fill-rule:nonzero;stroke:none"
         transform="matrix(0.13333333,0,0,-0.13333333,0,2666.6667)" />
      <path
         id="path78"
         d="m 13479.1,7126.9 c 0,0 81,-20.7 378,422.2 -51.5,-376.6 270.1,-1309.2 301.7,-1395.1 l 500.5,-39.5 c 0,0 -73.9,187.4 -206.9,514.9 -133,327.5 -314,2011.5 -314,2011.5 0,0 -426.6,-159.7 -716.6,-758.2 -406.4,309.4 -621.9,991.7 -726.2,1456.4 -293.3,-317 -494.5,-582.5 -494.5,-582.5 212.2,-802.7 1278,-1629.7 1278,-1629.7"
         style="fill:#ff9752;fill-opacity:1;fill-rule:nonzero;stroke:none"
         transform="matrix(0.13333333,0,0,-0.13333333,0,2666.6667)" />
      <path
         id="path79"
         d="m 12799.9,4993.8 c -34.7,-359.1 -48.5,-656.4 -48.5,-656.4 h 5628.9 c 0,0 37.1,183.5 82.3,440.7 -1529.7,-312.6 -4443.3,43 -5662.7,215.7"
         style="fill:#ff9752;fill-opacity:1;fill-rule:nonzero;stroke:none"
         transform="matrix(0.13333333,0,0,-0.13333333,0,2666.6667)" />
      <path
         id="path80"
         d="m 13846.8,8274.3 c -76,-161.6 -52.4,-359.9 -31.6,-534.8 4.9,-41.2 9.8,-81.7 13.2,-120.8 1.3,-13.8 12.9,-24.2 26.5,-24.2 0.7,0 1.5,0 2.4,0.1 14.5,1.4 25.4,14.2 24,28.9 -3.5,39.5 -8.4,80.5 -13.3,122.2 -21,176.2 -42.6,358.2 26.9,506 6.3,13.3 0.6,29.1 -12.7,35.4 -13.1,5.9 -29.1,0.6 -35.4,-12.8"
         style="fill:#ff7f2a;fill-opacity:1;fill-rule:nonzero;stroke:none"
         transform="matrix(0.13333333,0,0,-0.13333333,0,2666.6667)" />
      <path
         id="path81"
         d="m 15695.5,6101 c -272,-9.7 -569.7,9.3 -857.7,27.5 -198.4,12.4 -403.5,25.4 -599.4,29.1 -16.8,2.1 -26.8,-11.3 -27.1,-26 -0.3,-14.7 11.4,-26.8 26,-27.1 194.8,-3.7 399.4,-16.6 597.1,-29.1 235.7,-14.8 477.8,-30.1 707.9,-30.1 52.4,0 104.2,0.8 155.1,2.5 14.6,0.5 26.1,12.9 25.6,27.5 -0.5,14.7 -12.8,25 -27.5,25.7"
         style="fill:#ff7f2a;fill-opacity:1;fill-rule:nonzero;stroke:none"
         transform="matrix(0.13333333,0,0,-0.13333333,0,2666.6667)" />
      <path
         id="path82"
         d="m 18597,6355.4 c -196.5,26.3 -340.4,-70.6 -395,-265.1 -77.9,-277.9 52,-712.3 330.4,-835.1 3.4,-1.5 7,-2.3 10.6,-2.3 10.2,0 20,6 24.3,15.9 5.9,13.4 -0.1,29.1 -13.6,35 -254.9,112.5 -372.9,514.4 -300.5,772.1 27.4,97.8 107.7,258 336.8,226.8 15.3,-1.3 28,8.4 29.8,22.9 1.9,14.6 -8.3,27.9 -22.8,29.8"
         style="fill:#a02c2c;fill-opacity:1;fill-rule:nonzero;stroke:none"
         transform="matrix(0.13333333,0,0,-0.13333333,0,2666.6667)" />
      <path
         id="path83"
         d="m 18324.6,6674.6 c 4,14.1 -4.2,28.8 -18.3,32.8 -14.7,4.2 -28.8,-4.3 -32.8,-18.3 -36.5,-128.9 54.2,-302.3 161.9,-383.5 4.8,-3.6 10.4,-5.4 16,-5.4 8,0 16,3.7 21.2,10.6 8.9,11.7 6.5,28.3 -5.2,37.2 -91.8,69.2 -172.9,220.3 -142.8,326.6"
         style="fill:#a02c2c;fill-opacity:1;fill-rule:nonzero;stroke:none"
         transform="matrix(0.13333333,0,0,-0.13333333,0,2666.6667)" />
      <path
         id="path84"
         d="m 12178.8,9245.6 c 0,0 -701.9,-650 -1079.9,-1685 C 10088.3,7469.2 9296.31,7086.4 8087.75,6154.2 7930.9,5544.7 8483.74,4333.8 8483.74,4333.8 L 12994,4293.3 c 0,0 20.6,1273.4 131.1,1774.2 110.6,500.7 384.4,538.9 384.4,538.9 l -356.1,47.4 c 0,0 257.2,256.8 561.9,572.5 -785.6,461.5 -1536.5,2019.3 -1536.5,2019.3"
         style="fill:#008080;fill-opacity:1;fill-rule:nonzero;stroke:none"
         transform="matrix(0.13333333,0,0,-0.13333333,0,2666.6667)" />
      <path
         id="path85"
         d="m 13122.1,7763 c -215.4,-318.7 -682.9,-978.5 -921.1,-1069.3 439.3,-18.9 756.5,-26.4 962.7,-29.4 15.2,15.2 256.3,256 551.5,562 -204.3,120 -406,315 -593.1,536.7"
         style="fill:#006a6a;fill-opacity:1;fill-rule:nonzero;stroke:none"
         transform="matrix(0.13333333,0,0,-0.13333333,0,2666.6667)" />
      <path
         id="path86"
         d="m 13127.7,6673.6 -2056.3,104.6 -0.7,373.2 c 0,14.7 -12,26.5 -26.6,26.5 -14.8,0 -26.6,-11.9 -26.6,-26.5 l 0.7,-398.5 c 0,-14.2 11.1,-25.8 25.3,-26.5 L 13125,6620.5 c 0.4,0 0.9,0 1.3,0 14.1,0 25.9,11 26.6,25.2 0.7,14.7 -10.6,27.1 -25.2,27.9"
         style="fill:#005757;fill-opacity:1;fill-rule:nonzero;stroke:none"
         transform="matrix(0.13333333,0,0,-0.13333333,0,2666.6667)" />
      <path
         id="path87"
         d="m 9027.34,5986 c -133.6,338.9 -104.3,612.3 -18.06,820.7 -284.43,-179.4 -586.72,-394.1 -921.61,-652.4 -156.85,-609.5 396.05,-1820.5 396.05,-1820.5 L 12994,4293.3 c 0,0 9,531.8 45,1043.5 -1117.7,-34.5 -3739.74,-40.6 -4011.66,649.2"
         style="fill:#006a6a;fill-opacity:1;fill-rule:nonzero;stroke:none"
         transform="matrix(0.13333333,0,0,-0.13333333,0,2666.6667)" />
      <path
         id="path88"
         d="m 9810.83,14011.2 c -187.72,0 -420.43,25.4 -420.43,25.4 0,0 109.93,101.8 134.35,253.3 -259.71,-142.3 -494.99,-153.8 -886.49,-187.4 -391.49,-33.5 -684.63,-131.8 -787.49,-253.8 15.43,98.3 194.79,257.3 194.79,257.3 0,0 -331.07,-22 -468,-253.3 -136.93,-231.3 -152.36,-421.6 -152.36,-421.6 l -251.35,-107.5 253.28,-329 -162.64,-104.1 377.54,-813 c 0,0 -131.79,-375.8 122.14,-646.5 -0.63,104.7 99,218.6 99,218.6 0,0 131.78,-593.9 491.77,-596.7 360,-3 789.42,1295.8 789.42,1295.8 l 302.79,887.7 c 0,0 320.79,135.9 390.21,419.8 -140.78,-19.1 -235.28,-28.9 -235.28,-28.9 0,0 242.82,124.2 208.75,383.9"
         style="fill:#483737;fill-opacity:1;fill-rule:nonzero;stroke:none"
         transform="matrix(0.13333333,0,0,-0.13333333,0,2666.6667)" />
      <path
         id="path89"
         d="m 9198.59,13611 c 0,0 42.71,-140.6 -11.84,-316.5 -118.18,206.9 -611.81,219.1 -611.81,219.1 l 209.08,-175.8 c 0,0 -268.16,-92.4 -515.45,93.3 49.09,-279.7 -130.92,-426.1 -130.92,-426.1 0,0 36.35,-183.3 -11.83,-531.6 -389.11,258.4 -778.21,60.5 -680.93,-318.1 97.27,-378.6 256.38,-407.2 670.03,-450.5 58.91,-166.1 102.35,-555.8 128.74,-841.3 11.69,-22.1 24.31,-45.6 38.15,-70.8 14.9,-27.2 30.93,-55.9 48.1,-85.8 17.17,-29.9 35.44,-61.1 54.64,-92.8 19.2,-31.7 39.41,-64 60.4,-96.7 20.99,-32.6 42.68,-65.5 65.23,-98.2 22.55,-32.7 45.88,-65.2 69.74,-97 23.87,-31.8 48.39,-62.9 73.33,-92.9 12.47,-15 24.98,-29.9 37.68,-44.2 12.69,-14.4 25.56,-28.4 38.44,-42.1 12.89,-13.6 25.87,-27 38.93,-39.8 13.05,-12.9 26.2,-25.2 39.38,-37.1 13.2,-11.9 26.4,-23.3 39.7,-34.1 13.3,-10.8 26.63,-21 40.01,-30.6 13.37,-9.7 26.74,-18.6 40.16,-27 13.42,-8.3 26.89,-16.1 40.32,-23 13.43,-7 26.9,-13.1 40.32,-18.5 13.42,-5.5 26.79,-10.1 40.17,-13.9 13.38,-3.8 26.56,-7.1 39.54,-10 12.98,-2.8 25.73,-5.4 38.3,-7.4 12.57,-2 24.89,-3.6 37.05,-4.7 12.16,-1.2 24.2,-1.9 35.96,-2.2 11.75,-0.3 23.23,-0.2 34.56,0.3 11.33,0.5 22.56,1.4 33.47,2.7 10.91,1.3 21.58,2.9 32.07,5 10.49,2 20.76,4.5 30.82,7.3 10.06,2.8 19.95,6 29.58,9.5 9.63,3.5 18.99,7.4 28.18,11.6 9.19,4.3 18.18,8.7 26.93,13.6 8.75,4.9 17.23,10.2 25.53,15.7 8.31,5.5 16.43,11.3 24.29,17.4 7.85,6.2 15.47,12.7 22.88,19.5 7.41,6.8 14.54,13.8 21.49,21.2 6.94,7.3 13.75,15 20.23,22.9 6.49,7.9 12.66,16 18.69,24.4 6.02,8.4 11.87,17.1 17.43,26 5.56,8.9 10.79,18.1 15.88,27.6 5.09,9.4 10.02,19 14.63,28.9 4.61,9.9 8.95,20.1 13.08,30.4 4.13,10.3 8.03,20.8 11.67,31.6 7.3,21.5 13.67,43.8 19,66.8 5.33,23 9.57,46.8 12.92,71.1 3.35,24.4 5.68,49.4 7.01,74.9 1.32,25.5 1.66,51.5 0.93,78 -0.72,26.5 -2.49,53.4 -5.3,80.6 -2.81,27.3 -6.4,52.9 -10.58,76.9 -4.18,24.1 -8.99,46.6 -14.32,67.6 -5.33,21 -11.15,40.5 -17.44,58.7 -6.28,18.2 -13.04,35.1 -20.08,50.7 -7.04,15.6 -14.37,30 -21.95,43.2 -7.57,13.1 -15.28,25.1 -23.19,36.1 -7.93,11 -15.93,20.9 -23.98,29.9 -8.05,8.9 -16.16,17.1 -24.13,24.2 -7.98,7.2 -15.97,13.5 -23.66,19 -7.7,5.6 -15.21,10.5 -22.42,14.7 -7.21,4.1 -14.03,7.6 -20.55,10.6 -6.53,2.9 -12.74,5.5 -18.37,7.4 -0.91,0.4 -1.29,0.4 -2.18,0.7 -91.68,-49.9 -152.72,-149.2 -152.72,-149.2 l -45.46,402.3 c 0,0 432.74,46.7 521.83,314.9 89.1,268.3 49.09,1142.5 -57.28,1486 -106.38,343.4 -480.11,535.6 -480.11,535.6"
         style="fill:#ffb380;fill-opacity:1;fill-rule:nonzero;stroke:none"
         transform="matrix(0.13333333,0,0,-0.13333333,0,2666.6667)" />
      <path
         id="path90"
         d="m 7902.83,12384.2 c -112.39,63.6 -228.95,56.1 -319.86,-21.1 -11.1,-9.4 -12.56,-26.2 -3.01,-37.4 9.45,-11 26.05,-12.5 37.47,-3 99.73,84.5 205.28,45.7 259.35,15.3 126.42,-71.5 213.49,-227.2 194.08,-347.1 -2.28,-14.5 7.58,-28.1 22,-30.5 1.46,-0.2 2.91,-0.3 4.26,-0.3 12.87,0 24.08,9.3 26.26,22.3 23.04,142.5 -73.79,319 -220.55,401.8"
         style="fill:#ff7f2a;fill-opacity:1;fill-rule:nonzero;stroke:none"
         transform="matrix(0.13333333,0,0,-0.13333333,0,2666.6667)" />
      <path
         id="path91"
         d="m 9462.3,11882.1 c -238.5,-87.8 -548.19,-16.4 -740.91,71.5 -13.08,6.1 -29.07,0.1 -35.19,-13.2 -6.12,-13.3 -0.21,-29 13.18,-35.2 136.06,-62 328.37,-116.1 517.06,-116.1 91.23,0 181.62,12.7 264.34,43.2 13.7,5.1 20.75,20.3 15.67,34.1 -4.98,13.7 -19.82,20.9 -34.15,15.7"
         style="fill:#ff7f2a;fill-opacity:1;fill-rule:nonzero;stroke:none"
         transform="matrix(0.13333333,0,0,-0.13333333,0,2666.6667)" />
      <path
         id="path92"
         d="m 9288.25,12517.4 c -13.9,3.1 -28.43,-5.9 -31.65,-20.2 -3.21,-14.3 5.92,-28.4 20.24,-31.6 130.04,-28.9 217.84,-106.3 234.55,-207 15.78,-94.1 -35.39,-189.9 -133.46,-249.9 -12.46,-7.6 -16.4,-24 -8.72,-36.5 4.98,-8.2 13.7,-12.7 22.62,-12.7 4.78,0 9.55,1.3 13.91,3.9 116.86,71.6 177.47,188 158.06,303.9 -20.44,122.9 -123.39,216.4 -275.55,250.1"
         style="fill:#ff7f2a;fill-opacity:1;fill-rule:nonzero;stroke:none"
         transform="matrix(0.13333333,0,0,-0.13333333,0,2666.6667)" />
      <path
         id="path93"
         d="m 8527.52,12690.8 c -13.6,-5.5 -20.14,-21 -14.64,-34.6 5.4,-13.6 20.96,-20.1 34.56,-14.6 188.58,76.6 274.1,32.6 411.71,-78.3 4.99,-3.9 10.8,-5.9 16.71,-5.9 7.79,0 15.47,3.4 20.66,9.9 9.24,11.5 7.47,28.2 -3.95,37.3 -137.2,110.5 -243.79,176.4 -465.05,86.2"
         style="fill:#803300;fill-opacity:1;fill-rule:nonzero;stroke:none"
         transform="matrix(0.13333333,0,0,-0.13333333,0,2666.6667)" />
      <path
         id="path94"
         d="m 9645.17,12695.7 c -86.24,26.4 -184.11,4.4 -283.74,-63 -12.15,-8.3 -15.26,-24.8 -7.06,-37 5.19,-7.6 13.49,-11.6 22,-11.6 5.19,0 10.38,1.4 14.94,4.6 87.08,59 167.3,78 238.29,56.1 14.12,-4.2 28.85,3.6 33.22,17.6 4.25,14 -3.64,28.9 -17.65,33.3"
         style="fill:#803300;fill-opacity:1;fill-rule:nonzero;stroke:none"
         transform="matrix(0.13333333,0,0,-0.13333333,0,2666.6667)" />
      <path
         id="path95"
         d="m 7467.25,12381.4 c 6.95,13 2.18,29 -10.69,36 -12.97,7 -29.06,2.1 -36.01,-10.7 -90.09,-166.9 16.08,-456.9 158.06,-543.6 4.26,-2.7 9.03,-3.9 13.8,-3.9 8.93,0 17.65,4.5 22.63,12.7 7.68,12.5 3.74,28.9 -8.82,36.4 -122.47,74.9 -215.04,332.1 -138.97,473.1"
         style="fill:#ff7f2a;fill-opacity:1;fill-rule:nonzero;stroke:none"
         transform="matrix(0.13333333,0,0,-0.13333333,0,2666.6667)" />
      <path
         id="path96"
         d="m 8639.25,13118.8 c -150.01,-56.5 -216.37,-168.9 -194.1,-215.1 22.27,-46.2 68.87,-19.8 143.42,47.2 74.55,67.1 121.82,65 177.51,55.6 95.8,-20.2 133.16,-5.1 138.64,32.5 h -0.01 c 11.78,81.1 -115.46,136.2 -265.46,79.8"
         style="fill:#483737;fill-opacity:1;fill-rule:nonzero;stroke:none"
         transform="matrix(0.13333333,0,0,-0.13333333,0,2666.6667)" />
      <path
         id="path97"
         d="m 9586.09,13109.4 v 0 c 0,0 -115.91,80.9 -216.37,42.5 -100.46,-38.5 -118.18,-131.7 -81.37,-154.2 36.82,-22.5 55.46,55.6 133.65,40.9 78.18,-14.7 164.09,-83.8 190.45,-42.5 26.37,41.3 20.92,83 -26.36,113.3"
         style="fill:#483737;fill-opacity:1;fill-rule:nonzero;stroke:none"
         transform="matrix(0.13333333,0,0,-0.13333333,0,2666.6667)" />
      <path
         id="path98"
         d="m 8312.78,11648.9 c 344.99,-348.6 742.13,-455.7 914.14,-487.1 l -12.77,112.7 c 0,0 376,40.7 499.11,263.5 -92.75,-62.8 -226.26,-135.8 -368.81,-154.7 -262.88,-34.9 -836.87,132 -1031.67,265.6"
         style="fill:#ff9752;fill-opacity:1;fill-rule:nonzero;stroke:none"
         transform="matrix(0.13333333,0,0,-0.13333333,0,2666.6667)" />
      <path
         id="path99"
         d="m 9444.71,10249.8 c -220.7,-135.4 -585.23,-53.6 -807.81,0.2 5.52,-6.8 10.79,-14 16.35,-20.7 12.47,-15 24.98,-29.9 37.68,-44.2 12.69,-14.4 25.56,-28.4 38.44,-42.1 12.89,-13.6 25.87,-27 38.93,-39.8 13.05,-12.9 26.2,-25.2 39.38,-37.1 13.2,-11.9 26.4,-23.3 39.7,-34.1 13.3,-10.8 26.63,-21 40.01,-30.6 13.37,-9.7 26.74,-18.6 40.16,-27 13.42,-8.3 26.89,-16.1 40.32,-23 13.43,-7 26.9,-13.1 40.32,-18.5 13.42,-5.5 26.79,-10.1 40.17,-13.9 13.38,-3.8 26.56,-7.1 39.54,-10 12.98,-2.8 25.73,-5.4 38.3,-7.4 12.57,-2 24.89,-3.6 37.05,-4.7 12.16,-1.2 24.2,-1.9 35.96,-2.2 11.75,-0.3 23.23,-0.2 34.56,0.3 11.33,0.5 22.56,1.4 33.47,2.7 10.91,1.3 21.58,2.9 32.07,5 10.49,2 20.76,4.5 30.82,7.3 10.06,2.8 19.95,6 29.58,9.5 9.63,3.5 18.99,7.4 28.18,11.6 9.19,4.3 18.18,8.7 26.93,13.6 8.75,4.9 17.23,10.2 25.53,15.7 8.31,5.5 16.43,11.3 24.29,17.4 7.85,6.2 15.47,12.7 22.88,19.5 7.41,6.8 14.54,13.8 21.49,21.2 6.94,7.3 13.75,15 20.23,22.9 6.49,7.9 12.66,16 18.69,24.4 6.02,8.4 11.87,17.1 17.43,26 5.56,8.9 10.79,18.1 15.88,27.6 5.09,9.4 10.02,19 14.63,28.9 4.61,9.9 8.95,20.1 13.08,30.4 4.13,10.3 8.03,20.8 11.67,31.6 7.3,21.5 13.67,43.8 19,66.8 5.33,23 9.57,46.8 12.92,71.1 3.35,24.4 5.68,49.4 7.01,74.9 0.32,6.1 -0.05,12.5 0.15,18.7 -50.8,-66.5 -120.13,-133.8 -214.99,-192"
         style="fill:#ff9752;fill-opacity:1;fill-rule:nonzero;stroke:none"
         transform="matrix(0.13333333,0,0,-0.13333333,0,2666.6667)" />
      <path
         id="path100"
         d="m 21334.3,13400.2 c -279.1,-8.2 -507.2,-277.2 -507.2,-277.2 l -963.7,516.8 c 0,0 122.7,-429.3 421.8,-586.4 -479.1,16.4 -520.9,-58.8 -112.7,-206 -388.2,-49.1 -123.7,-310 347.3,-235.6 -576.4,-62.9 -679.1,-169.2 -679.1,-169.2 l 423.6,-55.7 c 0,0 -452.7,-188.9 -324.6,-233.8 128.2,-45 464.6,222.4 464.6,222.4 0,0 254.6,-190.5 688.2,68.7 433.7,259.2 388.2,722.1 388.2,722.1 v 0 l 315.5,9.8 c 0,0 -182.8,232.3 -461.9,224.1"
         style="fill:#d7e1fd;fill-opacity:1;fill-rule:nonzero;stroke:none"
         transform="matrix(0.13333333,0,0,-0.13333333,0,2666.6667)" />
      <path
         id="path101"
         d="m 6560.4,14480.9 c 0,0 194.55,-40.9 236.37,98.9 41.82,139.9 -299.1,112.1 -299.1,112.1 0,0 266.37,73.5 280.01,190.5 13.64,117 -308.19,72.8 -308.19,72.8 0,0 307.28,60.5 287.28,224.9 -20,164.3 -468.2,-54 -468.2,-54 0,0 470.93,292.8 365.47,646.9 -607.3,-427.7 -830.94,-635.4 -830.94,-635.4 0,0 -479.11,492.3 -930.04,-93.3 l 276.37,26.2 c 0,0 100.91,-630.5 667.3,-716.4 566.38,-85.9 606.39,49.1 606.39,49.1 0,0 143.64,-152.1 312.74,-83.4 169.1,68.6 -195.46,161.1 -195.46,161.1"
         style="fill:#d7e1fd;fill-opacity:1;fill-rule:nonzero;stroke:none"
         transform="matrix(0.13333333,0,0,-0.13333333,0,2666.6667)" />
    </g>
  </g>
</svg>
